<svg width="424" height="157" viewBox="0 0 424 157" fill="none" xmlns="http://www.w3.org/2000/svg">
<path d="M168.242 52.3801H141.544V35.5392H214.187V52.3801H187.353V130.402H168.242V52.3801Z" fill="black"/>
<path d="M277.98 65.2315V130.46H261.002V122.57H260.672C255.924 128.576 249.289 131.579 240.765 131.579C236.391 131.614 232.055 130.793 228.009 129.165C224.192 127.633 220.747 125.331 217.898 122.408C214.966 119.35 212.71 115.731 211.272 111.779C208.067 102.928 208.067 93.2649 211.272 84.413C212.714 80.4398 214.94 76.7833 217.823 73.652C220.674 70.6351 224.133 68.23 227.981 66.5882C231.829 64.9463 235.982 64.1035 240.179 64.1127C243.893 63.9887 247.589 64.6882 250.989 66.159C254.389 67.6297 257.406 69.8338 259.816 72.6068H260.086V65.2463L277.98 65.2315ZM256.014 110.955C257.65 109.233 258.921 107.211 259.754 105.005C260.587 102.799 260.965 100.454 260.867 98.1036C261.032 93.3205 259.329 88.6559 256.105 85.0608C254.618 83.377 252.769 82.0366 250.691 81.1356C248.613 80.2347 246.357 79.7955 244.085 79.8495C241.801 79.7944 239.53 80.2132 237.422 81.0783C235.315 81.9434 233.418 83.2354 231.855 84.8694C230.191 86.654 228.903 88.7431 228.065 91.0167C227.227 93.2903 226.856 95.7037 226.972 98.1183C226.766 102.848 228.472 107.466 231.72 110.97C233.309 112.542 235.199 113.79 237.283 114.641C239.367 115.493 241.602 115.932 243.86 115.932C246.118 115.932 248.353 115.493 250.437 114.641C252.52 113.79 254.411 112.542 255.999 110.97L256.014 110.955Z" fill="black"/>
<path d="M293.575 32.0944H311.424V130.46H293.575V32.0944Z" fill="black"/>
<path d="M328.342 32.0944H346.175V130.46H328.342V32.0944Z" fill="black"/>
<path d="M423.22 65.2315L387.417 156.885H369.087L380.941 126.427L354.363 65.2315H373.009L389.325 105.611H389.52L404.77 65.2315H423.22Z" fill="black"/>
<path fill-rule="evenodd" clip-rule="evenodd" d="M86.288 82.0772V57.2053L12.886 15.6821V8.05179L93.0106 53.3779V85.8819L86.288 82.0772ZM67.3641 93.0377L60.6415 89.233V134.545L67.3641 138.348V93.0377Z" fill="black"/>
<path fill-rule="evenodd" clip-rule="evenodd" d="M99.15 74.7118V49.8399L25.748 8.31674V0.686401L105.873 46.0125V78.5165L99.15 74.7118ZM80.2261 85.6723L73.5035 81.8676V127.179L80.2261 130.982V85.6723Z" fill="black"/>
<path d="M80.1697 60.6199V93.1239L54.5232 78.609V145.59L25.7066 129.279V62.3128L0.0450363 47.7979V15.2938L80.1697 60.6199Z" fill="black"/>
</svg>
